<svg width="51" height="46" viewBox="0 0 51 46" fill="none" xmlns="http://www.w3.org/2000/svg">
<path d="M22.2016 0.00807121C18.5621 0.130524 15.3489 0.924144 12.2813 2.45713C8.96736 4.11413 6.31524 6.36789 4.19943 9.32692C1.74107 12.7618 0.338282 16.8074 0.0515244 21.2793C-0.00737721 22.2031 -0.0166775 23.5563 0.0282737 24.3871C0.175528 27.0919 0.662241 29.4651 1.54266 31.7808C2.50834 34.3167 3.91268 36.5968 5.81303 38.7111C6.11529 39.049 6.96471 39.8968 7.31347 40.2084C8.71781 41.467 10.243 42.5366 11.7853 43.3395C15.2714 45.1577 19.1635 46.0505 23.3641 45.9978C24.2601 45.9854 24.7003 45.9621 25.5187 45.8846C27.7275 45.6754 29.8387 45.1685 31.7964 44.3796C33.9199 43.5224 36.0869 42.2064 37.8958 40.6719C38.5204 40.1417 39.4303 39.2613 39.9325 38.7018C41.7244 36.7053 43.1566 34.4128 43.9766 32.2303C44.5827 30.6136 44.888 29.0837 44.9795 27.1927C44.9872 27.0222 44.995 26.8501 44.995 26.8083V26.7354H46.8876C48.512 26.7354 48.8034 26.7323 48.9414 26.7122C49.2374 26.6672 49.4916 26.5618 49.7272 26.3851C50.0357 26.1526 50.2465 25.8333 50.355 25.4349C50.3907 25.3016 50.3953 25.2582 50.3938 25.0226C50.3938 24.787 50.3891 24.7421 50.3535 24.6041C50.3039 24.4197 50.1737 24.1484 50.0652 24.0058C49.7985 23.6555 49.3878 23.4075 48.9631 23.3408C48.8763 23.3284 48.0889 23.3253 45.925 23.3284L43.0032 23.3331L42.8559 23.3765C42.2204 23.5609 41.7755 24.0337 41.6221 24.6863C41.6004 24.7731 41.5957 24.9761 41.5849 25.9759C41.5709 27.2624 41.5585 27.5322 41.4748 28.2235C41.2036 30.485 40.2735 32.6581 38.6057 34.9352C38.0322 35.7195 37.5036 36.3364 36.803 37.037C36.0977 37.7438 35.563 38.2073 34.7569 38.8103C32.514 40.4858 30.082 41.5972 27.4485 42.149C26.4007 42.3676 25.4645 42.4885 24.2244 42.5645C23.8013 42.5893 22.3055 42.5893 21.8529 42.5645C18.8504 42.394 16.3781 41.7739 13.8376 40.5572C11.9543 39.655 9.97024 38.1825 8.50235 36.5983C6.00988 33.9059 4.44589 30.7686 3.76542 27.0997C3.40581 25.1606 3.31591 22.9332 3.50967 20.8298C3.88168 16.7795 5.35422 13.1648 7.84513 10.1794C8.47445 9.42612 9.22932 8.66195 9.97644 8.02178C11.666 6.57249 13.7942 5.35416 16.0014 4.56984C17.8212 3.92348 19.6967 3.55611 21.7754 3.43831C22.5209 3.39646 23.7005 3.40266 24.5499 3.45536C26.9044 3.59951 29.1349 4.09863 31.1469 4.93255C32.1777 5.35881 33.2937 5.95093 34.154 6.52444C34.4128 6.6965 34.6097 6.7864 34.8499 6.8422C35.0205 6.8825 35.3723 6.8825 35.5552 6.84375C36.51 6.63914 37.1022 5.67502 36.8511 4.73259C36.7286 4.27378 36.4945 3.98393 35.966 3.63672C34.9461 2.96555 33.7262 2.31918 32.5404 1.81852C29.6496 0.601737 26.3805 -0.0167329 22.9317 0.000318247C22.5984 0.00186731 22.2698 0.00496926 22.2016 0.00807121Z" fill="#64DAFF"/>
<path d="M22.5272 11.2287C21.9413 11.2581 21.5848 11.2907 21.1477 11.3527C19.1078 11.641 17.2385 12.4826 15.7768 13.7676C14.5151 14.8775 13.5106 16.3655 12.8782 18.0628C12.424 19.2827 12.176 20.4871 12.0691 22.0154C12.0427 22.3828 12.0443 23.691 12.0691 24.0692C12.2024 26.0114 12.5667 27.518 13.2626 29.0107C13.7741 30.1051 14.653 31.3048 15.5458 32.1248C17.5919 34.0034 20.1681 34.935 23.3177 34.935C26.1094 34.935 28.3476 34.2158 30.1224 32.7479C30.3332 32.5743 30.9098 31.9946 31.1036 31.7636C32.3824 30.2322 33.1032 28.3644 33.2923 26.0905C33.3217 25.7293 33.3403 25.0349 33.3248 24.8783C33.2845 24.5017 33.1528 24.1886 32.914 23.9111C32.7063 23.6693 32.3901 23.4693 32.0677 23.3763L31.9205 23.3329L28.0376 23.3283C25.2041 23.3252 27.1216 23.3283 27.0317 23.3407C26.376 23.4352 25.8133 23.9421 25.6351 24.604C25.5963 24.7435 25.5932 24.7838 25.5932 25.0225C25.5932 25.2565 25.5979 25.303 25.632 25.4348C25.711 25.7262 25.8443 25.9742 26.0396 26.1881C26.2892 26.464 26.6937 26.6686 27.0859 26.7198C27.1572 26.7291 28.281 26.7353 29.9891 26.7353H29.7737L29.7659 26.7694C29.7613 26.7895 29.7442 26.8717 29.7272 26.9523C29.6698 27.2142 29.5908 27.4963 29.5024 27.7568C28.7785 29.8586 27.1897 31.0955 24.7825 31.4303C24.0091 31.5389 22.9922 31.5528 22.1785 31.4691C19.7139 31.2164 17.829 30.071 16.6526 28.1148C16.2046 27.3692 15.8791 26.4904 15.6776 25.4797C15.4249 24.218 15.3831 22.6153 15.5691 21.2869C15.7117 20.2747 15.9752 19.3757 16.372 18.5588C17.0044 17.2552 17.8771 16.2849 19.0179 15.6168C19.2318 15.4913 19.6891 15.2696 19.9262 15.1751C20.94 14.7751 22.1537 14.5876 23.3782 14.6434C24.5996 14.6976 25.4475 14.9038 26.362 15.3657C26.7836 15.5796 27.0859 15.6416 27.4579 15.5889C28.205 15.4851 28.7847 14.9224 28.9149 14.1737C28.9506 13.9738 28.9366 13.6808 28.8839 13.4747C28.8359 13.2902 28.7072 13.0221 28.5972 12.8763C28.4918 12.7384 28.3166 12.5741 28.1678 12.4764C28.019 12.3788 27.4718 12.1075 27.1851 11.9897C26.1714 11.5743 25.139 11.3434 23.8758 11.2504C23.6525 11.2333 22.721 11.2194 22.5272 11.2287Z" fill="white"/>
</svg>
